<svg xmlns='http://www.w3.org/2000/svg' xmlns:xlink='http://www.w3.org/1999/xlink'>
  <defs>
    <symbol id="heart" viewBox="0 0 512 512">
      <path d="M365.4,59.628c60.56,0,109.6,49.03,109.6,109.47c0,109.47-109.6,171.8-219.06,281.271    C146.47,340.898,37,278.568,37,169.099c0-60.44,49.04-109.47,109.47-109.47c54.73,0,82.1,27.37,109.47,82.1    C283.3,86.999,310.67,59.628,365.4,59.628z" />
    </symbol>
    <symbol id="cross" viewBox="0 0 24 24">
      <path d="M5.3,18.7C5.5,18.9,5.7,19,6,19s0.5-0.1,0.7-0.3l5.3-5.3l5.3,5.3c0.2,0.2,0.5,0.3,0.7,0.3s0.5-0.1,0.7-0.3   c0.4-0.4,0.4-1,0-1.4L13.4,12l5.3-5.3c0.4-0.4,0.4-1,0-1.4s-1-0.4-1.4,0L12,10.6L6.7,5.3c-0.4-0.4-1-0.4-1.4,0s-0.4,1,0,1.4   l5.3,5.3l-5.3,5.3C4.9,17.7,4.9,18.3,5.3,18.7z" />
    </symbol>
  </defs>
</svg>